<svg xmlns="http://www.w3.org/2000/svg" version="1.1" xmlns:xlink="http://www.w3.org/1999/xlink" xmlns:svgjs="http://svgjs.com/svgjs" width="100" height="1080" preserveAspectRatio="none" viewBox="0 0 100 1080"><g mask="url(&quot;#SvgjsMask1067&quot;)" fill="none"><path d="M29.81 297.65a7.23 7.23 0 1 0-11.05 9.32z" stroke="rgba(104, 215, 214, 1)"></path><path d="M60.67 267.56 a8.2 8.2 0 1 0 16.4 0 a8.2 8.2 0 1 0 -16.4 0z" fill="rgba(174, 88, 255, 1)"></path><path d="M56.81 583.31 a3.86 3.86 0 1 0 7.72 0 a3.86 3.86 0 1 0 -7.72 0z" stroke="rgba(104, 215, 214, 1)"></path><path d="M91.71 10.82a4.05 4.05 0 1 0-7.26-3.6z" fill="rgba(174, 88, 255, 1)"></path><path d="M70.43 831.53 a0.36 0.36 0 1 0 0.72 0 a0.36 0.36 0 1 0 -0.72 0z" fill="rgba(104, 215, 214, 1)"></path><path d="M39.05 417.91a0.78 0.78 0 1 0-0.02-1.56z" stroke="rgba(174, 88, 255, 1)"></path><path d="M14.07 793.04a6.12 6.12 0 1 0 9.19 8.08z" fill="rgba(174, 88, 255, 1)"></path><path d="M69.39 699.95L77.17 699.95L77.17 707.73L69.39 707.73z" stroke="rgba(174, 88, 255, 1)"></path><path d="M40.14 149.32 a1.52 1.52 0 1 0 3.04 0 a1.52 1.52 0 1 0 -3.04 0z" stroke="rgba(104, 215, 214, 1)"></path><path d="M33.84 286.5 a0.29 0.29 0 1 0 0.58 0 a0.29 0.29 0 1 0 -0.58 0z" fill="rgba(104, 215, 214, 1)"></path><path d="M10.8 721.53a2.9 2.9 0 1 0 1.18-5.68z" stroke="rgba(174, 88, 255, 1)"></path><path d="M76.07 520.53a3.53 3.53 0 1 0-3.08 6.35z" fill="rgba(104, 215, 214, 1)"></path><path d="M79.87 173.3 a2.22 2.22 0 1 0 4.44 0 a2.22 2.22 0 1 0 -4.44 0z" fill="rgba(174, 88, 255, 1)"></path><path d="M91.62 858.43 a4.79 4.79 0 1 0 9.58 0 a4.79 4.79 0 1 0 -9.58 0z" fill="rgba(174, 88, 255, 1)"></path><path d="M95.59 905.97L99.7 905.97L99.7 910.42L95.59 910.42z" fill="rgba(174, 88, 255, 1)"></path><path d="M37.27 395.3a1.17 1.17 0 1 0-0.98-2.13z" fill="rgba(104, 215, 214, 1)"></path><path d="M71.93 249.04L73.34 249.04L73.34 252.22L71.93 252.22z" stroke="rgba(104, 215, 214, 1)"></path><path d="M88.31 446.48L97.92 446.48L97.92 449.27L88.31 449.27z" stroke="rgba(104, 215, 214, 1)"></path><path d="M60.01 878.56L66.95 878.56L66.95 883.44L60.01 883.44z" fill="rgba(104, 215, 214, 1)"></path><path d="M3.37 867.14 a6.78 6.78 0 1 0 13.56 0 a6.78 6.78 0 1 0 -13.56 0z" fill="rgba(104, 215, 214, 1)"></path><path d="M66.01 1053.65L75.23 1053.65L75.23 1062.87L66.01 1062.87z" stroke="rgba(104, 215, 214, 1)"></path><path d="M67.38 1048.01L75.62 1048.01L75.62 1056.25L67.38 1056.25z" stroke="rgba(104, 215, 214, 1)"></path><path d="M82.55 987.54 a1.91 1.91 0 1 0 3.82 0 a1.91 1.91 0 1 0 -3.82 0z" fill="rgba(104, 215, 214, 1)"></path><path d="M97.88 760.78a9.45 9.45 0 1 0-0.24-18.9z" stroke="rgba(174, 88, 255, 1)"></path><path d="M28.03 772.38L31.87 772.38L31.87 776.22L28.03 776.22z" fill="rgba(104, 215, 214, 1)"></path><path d="M45.32 1040.28L48.78 1040.28L48.78 1043.74L45.32 1043.74z" stroke="rgba(174, 88, 255, 1)"></path><path d="M21.14 899.77L28.68 899.77L28.68 901.97L21.14 901.97z" fill="rgba(174, 88, 255, 1)"></path><path d="M72.62 630.15L82.01 630.15L82.01 639.54L72.62 639.54z" fill="rgba(174, 88, 255, 1)"></path><path d="M2.97 298.09 a8.43 8.43 0 1 0 16.86 0 a8.43 8.43 0 1 0 -16.86 0z" stroke="rgba(104, 215, 214, 1)"></path><path d="M66 797.06a9.83 9.83 0 1 0-4.9 19.04z" stroke="rgba(104, 215, 214, 1)"></path><path d="M53.36 1064.62L53.36 1064.62L53.36 1064.62L53.36 1064.62z" stroke="rgba(174, 88, 255, 1)"></path><path d="M50.73 903.11L52.01 903.11L52.01 904.39L50.73 904.39z" stroke="rgba(174, 88, 255, 1)"></path><path d="M89.78 821.14L90.87 821.14L90.87 822.23L89.78 822.23z" stroke="rgba(174, 88, 255, 1)"></path><path d="M19.78 90.81L23.22 90.81L23.22 94.25L19.78 94.25z" fill="rgba(174, 88, 255, 1)"></path><path d="M4.62 447.12L8.27 447.12L8.27 453.51L4.62 453.51z" fill="rgba(174, 88, 255, 1)"></path><path d="M14.31 548.41L18.09 548.41L18.09 552.19L14.31 552.19z" fill="rgba(104, 215, 214, 1)"></path><path d="M33.84 576.32 a2.11 2.11 0 1 0 4.22 0 a2.11 2.11 0 1 0 -4.22 0z" fill="rgba(174, 88, 255, 1)"></path><path d="M55.75 703.7a2.11 2.11 0 1 0 4.2 0.3z" fill="rgba(104, 215, 214, 1)"></path><path d="M1.75 591.45L9.83 591.45L9.83 599.53L1.75 599.53z" fill="rgba(104, 215, 214, 1)"></path><path d="M79.11 66.41a1.09 1.09 0 1 0-0.9 1.98z" stroke="rgba(174, 88, 255, 1)"></path><path d="M30.05 317.26a3.58 3.58 0 1 0 3.85-6.03z" stroke="rgba(174, 88, 255, 1)"></path><path d="M69.18 661.31a8.65 8.65 0 1 0 17.06 2.88z" stroke="rgba(104, 215, 214, 1)"></path><path d="M59.46 193.56 a4.87 4.87 0 1 0 9.74 0 a4.87 4.87 0 1 0 -9.74 0z" stroke="rgba(174, 88, 255, 1)"></path><path d="M90.75 617.15a3.98 3.98 0 1 0 7.88 1.14z" stroke="rgba(174, 88, 255, 1)"></path><path d="M36.43 599.04L43.22 599.04L43.22 600.46L36.43 600.46z" stroke="rgba(174, 88, 255, 1)"></path><path d="M5.69 381.4L11.66 381.4L11.66 384.81L5.69 384.81z" stroke="rgba(174, 88, 255, 1)"></path><path d="M90.12 533.07L92.59 533.07L92.59 542.76L90.12 542.76z" fill="rgba(174, 88, 255, 1)"></path><path d="M96.54 1064.14L106 1064.14L106 1073.6L96.54 1073.6z" stroke="rgba(174, 88, 255, 1)"></path><path d="M52.46 227.05 a8.93 8.93 0 1 0 17.86 0 a8.93 8.93 0 1 0 -17.86 0z" fill="rgba(174, 88, 255, 1)"></path><path d="M-3.95 307.97 a9.49 9.49 0 1 0 18.98 0 a9.49 9.49 0 1 0 -18.98 0z" fill="rgba(104, 215, 214, 1)"></path><path d="M76.16 1026.17a6 6 0 1 0 9.02 7.91z" fill="rgba(104, 215, 214, 1)"></path><path d="M-7.66 875.17 a7.67 7.67 0 1 0 15.34 0 a7.67 7.67 0 1 0 -15.34 0z" stroke="rgba(174, 88, 255, 1)"></path><path d="M78.32 288.7L81.65 288.7L81.65 292.03L78.32 292.03z" stroke="rgba(104, 215, 214, 1)"></path><path d="M36.86 164.86L38.25 164.86L38.25 166.25L36.86 166.25z" stroke="rgba(104, 215, 214, 1)"></path><path d="M97.87 314.58L100.59 314.58L100.59 317.3L97.87 317.3z" stroke="rgba(174, 88, 255, 1)"></path><path d="M57.75 971.9L65.26 971.9L65.26 980.82L57.75 980.82z" fill="rgba(104, 215, 214, 1)"></path><path d="M63.08 750.19 a7.7 7.7 0 1 0 15.4 0 a7.7 7.7 0 1 0 -15.4 0z" fill="rgba(174, 88, 255, 1)"></path><path d="M38.27 1053.21 a7.27 7.27 0 1 0 14.54 0 a7.27 7.27 0 1 0 -14.54 0z" fill="rgba(174, 88, 255, 1)"></path><path d="M5.54 839.25L14.7 839.25L14.7 840.58L5.54 840.58z" fill="rgba(104, 215, 214, 1)"></path><path d="M62.99 230.26L67.9 230.26L67.9 233.57L62.99 233.57z" fill="rgba(104, 215, 214, 1)"></path><path d="M47.79 463.91L51.48 463.91L51.48 470.19L47.79 470.19z" fill="rgba(104, 215, 214, 1)"></path><path d="M13.77 172.12L16.77 172.12L16.77 175.12L13.77 175.12z" fill="rgba(174, 88, 255, 1)"></path><path d="M30.85 590.29a4.18 4.18 0 1 0-8.27-1.21z" fill="rgba(104, 215, 214, 1)"></path><path d="M82 77.84a5.9 5.9 0 1 0-7.71-8.93z" fill="rgba(174, 88, 255, 1)"></path><path d="M10.13 189.21 a4.97 4.97 0 1 0 9.94 0 a4.97 4.97 0 1 0 -9.94 0z" fill="rgba(174, 88, 255, 1)"></path><path d="M40.45 512.63a4.43 4.43 0 1 0 5.7 6.78z" stroke="rgba(174, 88, 255, 1)"></path><path d="M10.42 1065.14 a6.32 6.32 0 1 0 12.64 0 a6.32 6.32 0 1 0 -12.64 0z" fill="rgba(104, 215, 214, 1)"></path><path d="M67.58 242.74L68.7 242.74L68.7 243.86L67.58 243.86z" stroke="rgba(104, 215, 214, 1)"></path><path d="M70.47 629.02 a9.71 9.71 0 1 0 19.42 0 a9.71 9.71 0 1 0 -19.42 0z" fill="rgba(174, 88, 255, 1)"></path><path d="M32.28 355.9L32.83 355.9L32.83 363.2L32.28 363.2z" fill="rgba(104, 215, 214, 1)"></path><path d="M34.85 607.4L39.43 607.4L39.43 611.98L34.85 611.98z" stroke="rgba(174, 88, 255, 1)"></path><path d="M22.03 622.73L27.38 622.73L27.38 626.87L22.03 626.87z" stroke="rgba(174, 88, 255, 1)"></path><path d="M12.39 659.82 a6.41 6.41 0 1 0 12.82 0 a6.41 6.41 0 1 0 -12.82 0z" stroke="rgba(174, 88, 255, 1)"></path><path d="M8.08 111.78a9.05 9.05 0 1 0 17.94 2.38z" fill="rgba(104, 215, 214, 1)"></path><path d="M39.42 1035.49a2.63 2.63 0 1 0-5.24 0.47z" fill="rgba(174, 88, 255, 1)"></path><path d="M25.08 557.24a2.32 2.32 0 1 0 2.01-4.18z" fill="rgba(174, 88, 255, 1)"></path><path d="M5.24 981.5L13.02 981.5L13.02 989.28L5.24 989.28z" stroke="rgba(174, 88, 255, 1)"></path><path d="M101.58 467.37a6.06 6.06 0 1 0-11.45 3.97z" stroke="rgba(104, 215, 214, 1)"></path><path d="M101.29 717.36a9.34 9.34 0 1 0-18.67-0.58z" fill="rgba(174, 88, 255, 1)"></path><path d="M33.52 856.38 a0.27 0.27 0 1 0 0.54 0 a0.27 0.27 0 1 0 -0.54 0z" stroke="rgba(174, 88, 255, 1)"></path><path d="M2.47 358.86 a4.3 4.3 0 1 0 8.6 0 a4.3 4.3 0 1 0 -8.6 0z" stroke="rgba(104, 215, 214, 1)"></path><path d="M97.38 357.32L102.09 357.32L102.09 360.72L97.38 360.72z" fill="rgba(104, 215, 214, 1)"></path><path d="M82.6 934.32L87.4 934.32L87.4 934.81L82.6 934.81z" stroke="rgba(174, 88, 255, 1)"></path><path d="M56.41 1021.27 a0.02 0.02 0 1 0 0.04 0 a0.02 0.02 0 1 0 -0.04 0z" fill="rgba(174, 88, 255, 1)"></path><path d="M61.75 678.2L70.21 678.2L70.21 686.66L61.75 686.66z" stroke="rgba(174, 88, 255, 1)"></path><path d="M52.69 120.64a0.29 0.29 0 1 0-0.09 0.57z" fill="rgba(174, 88, 255, 1)"></path><path d="M62.04 304.83 a6.12 6.12 0 1 0 12.24 0 a6.12 6.12 0 1 0 -12.24 0z" fill="rgba(104, 215, 214, 1)"></path><path d="M25.03 906.53 a2.86 2.86 0 1 0 5.72 0 a2.86 2.86 0 1 0 -5.72 0z" fill="rgba(174, 88, 255, 1)"></path><path d="M1.3 283.57L9.64 283.57L9.64 290.16L1.3 290.16z" stroke="rgba(174, 88, 255, 1)"></path><path d="M82.9 387a0.54 0.54 0 1 0-1.01-0.4z" stroke="rgba(104, 215, 214, 1)"></path><path d="M47.53 955.96 a6.56 6.56 0 1 0 13.12 0 a6.56 6.56 0 1 0 -13.12 0z" stroke="rgba(174, 88, 255, 1)"></path><path d="M29.34 320.26a5.91 5.91 0 1 0-4.07-11.09z" stroke="rgba(104, 215, 214, 1)"></path><path d="M24.7 163.12L34.55 163.12L34.55 172.97L24.7 172.97z" fill="rgba(174, 88, 255, 1)"></path><path d="M21.09 965.01L30.33 965.01L30.33 967.48L21.09 967.48z" fill="rgba(104, 215, 214, 1)"></path><path d="M15.17 910.7a8.95 8.95 0 1 0 0.87-17.88z" stroke="rgba(104, 215, 214, 1)"></path><path d="M92.9 77a1.76 1.76 0 1 0 1.43-3.22z" stroke="rgba(174, 88, 255, 1)"></path><path d="M84.26 693.4L89.44 693.4L89.44 698.58L84.26 698.58z" fill="rgba(174, 88, 255, 1)"></path><path d="M86.4 935.19 a6.54 6.54 0 1 0 13.08 0 a6.54 6.54 0 1 0 -13.08 0z" stroke="rgba(104, 215, 214, 1)"></path><path d="M54.02 960.27L55.83 960.27L55.83 962.08L54.02 962.08z" fill="rgba(174, 88, 255, 1)"></path><path d="M9.94 951.78 a7.56 7.56 0 1 0 15.12 0 a7.56 7.56 0 1 0 -15.12 0z" stroke="rgba(104, 215, 214, 1)"></path><path d="M48.25 288.75L48.93 288.75L48.93 295.86L48.25 295.86z" stroke="rgba(104, 215, 214, 1)"></path><path d="M91.51 754.23a4.3 4.3 0 1 0 0.75-8.57z" fill="rgba(104, 215, 214, 1)"></path><path d="M56.86 950.92L59.28 950.92L59.28 956.27L56.86 956.27z" stroke="rgba(104, 215, 214, 1)"></path><path d="M50.81 217.29 a4.42 4.42 0 1 0 8.84 0 a4.42 4.42 0 1 0 -8.84 0z" stroke="rgba(174, 88, 255, 1)"></path><path d="M56.15 736.43L65.38 736.43L65.38 745.66L56.15 745.66z" stroke="rgba(174, 88, 255, 1)"></path><path d="M37.14 829.19a6.48 6.48 0 1 0 2.05-12.8z" stroke="rgba(174, 88, 255, 1)"></path><path d="M61.3 425.83L69.2 425.83L69.2 429.53L61.3 429.53z" stroke="rgba(174, 88, 255, 1)"></path><path d="M66.11 883.68L75.31 883.68L75.31 892.88L66.11 892.88z" stroke="rgba(104, 215, 214, 1)"></path><path d="M34.19 1011.8a5.14 5.14 0 1 0-5.08 8.94z" stroke="rgba(104, 215, 214, 1)"></path><path d="M18.04 455.1L23.21 455.1L23.21 460.27L18.04 460.27z" stroke="rgba(174, 88, 255, 1)"></path><path d="M20.14 1019.29L26.72 1019.29L26.72 1021.86L20.14 1021.86z" fill="rgba(174, 88, 255, 1)"></path><path d="M43.08 882.45L45.08 882.45L45.08 884.45L43.08 884.45z" fill="rgba(104, 215, 214, 1)"></path><path d="M44.68 706.34 a7.41 7.41 0 1 0 14.82 0 a7.41 7.41 0 1 0 -14.82 0z" fill="rgba(104, 215, 214, 1)"></path><path d="M37.57 907.16a3.74 3.74 0 1 0-3.98-6.34z" fill="rgba(174, 88, 255, 1)"></path><path d="M32.23 152.67L39.11 152.67L39.11 152.91L32.23 152.91z" fill="rgba(174, 88, 255, 1)"></path><path d="M91.26 655.75 a3.65 3.65 0 1 0 7.3 0 a3.65 3.65 0 1 0 -7.3 0z" fill="rgba(104, 215, 214, 1)"></path><path d="M54.73 283.28a8.05 8.05 0 1 0 14.97 5.92z" stroke="rgba(104, 215, 214, 1)"></path><path d="M97.08 325.24a4.33 4.33 0 1 0 4.28-7.53z" fill="rgba(174, 88, 255, 1)"></path><path d="M51.15 722.61L55.03 722.61L55.03 722.99L51.15 722.99z" stroke="rgba(104, 215, 214, 1)"></path><path d="M30.6 481.72a5.16 5.16 0 1 0 5.13 8.95z" fill="rgba(104, 215, 214, 1)"></path><path d="M29.22 347.8 a8.1 8.1 0 1 0 16.2 0 a8.1 8.1 0 1 0 -16.2 0z" stroke="rgba(174, 88, 255, 1)"></path><path d="M14.35 62.92a7.02 7.02 0 1 0-13.73 2.95z" fill="rgba(104, 215, 214, 1)"></path><path d="M106.51 947.8a7.92 7.92 0 1 0-15.74-1.76z" fill="rgba(104, 215, 214, 1)"></path><path d="M93.73 163.55 a5.85 5.85 0 1 0 11.7 0 a5.85 5.85 0 1 0 -11.7 0z" stroke="rgba(174, 88, 255, 1)"></path><path d="M66.37 452.38L74.83 452.38L74.83 459.33L66.37 459.33z" fill="rgba(174, 88, 255, 1)"></path><path d="M99.17 884.63L102.73 884.63L102.73 887.93L99.17 887.93z" fill="rgba(104, 215, 214, 1)"></path><path d="M2.96 936.06L7.6 936.06L7.6 940.7L2.96 940.7z" fill="rgba(104, 215, 214, 1)"></path><path d="M4.97 803.24a3.33 3.33 0 1 0 4.46-4.94z" fill="rgba(174, 88, 255, 1)"></path><path d="M98.68 213.08a2.37 2.37 0 1 0 0.94 4.65z" fill="rgba(174, 88, 255, 1)"></path><path d="M36.29 399.47L46.08 399.47L46.08 405.22L36.29 405.22z" stroke="rgba(174, 88, 255, 1)"></path><path d="M67.15 539.93L71.59 539.93L71.59 542.61L67.15 542.61z" stroke="rgba(174, 88, 255, 1)"></path><path d="M23.15 108.38 a1.44 1.44 0 1 0 2.88 0 a1.44 1.44 0 1 0 -2.88 0z" stroke="rgba(104, 215, 214, 1)"></path><path d="M28.67 0.42a7.02 7.02 0 1 0 12.5 6.4z" stroke="rgba(174, 88, 255, 1)"></path><path d="M21.57 803.62L26.08 803.62L26.08 806.47L21.57 806.47z" stroke="rgba(174, 88, 255, 1)"></path><path d="M87.68 593.3a5.88 5.88 0 1 0-10.28 5.71z" stroke="rgba(104, 215, 214, 1)"></path></g><defs><mask id="SvgjsMask1067"><rect width="100" height="1080" fill="#ffffff"></rect></mask></defs></svg>