<svg xmlns="http://www.w3.org/2000/svg" version="1.1" xmlns:xlink="http://www.w3.org/1999/xlink" xmlns:svgjs="http://svgjs.com/svgjs" width="500" height="1080" preserveAspectRatio="none" viewBox="0 0 500 1080"><g mask="url(&quot;#SvgjsMask1046&quot;)" fill="none"><path d="M224.43 65.47L258.72 65.47L258.72 104.08L224.43 104.08z" fill="rgba(174, 88, 255, 1)"></path><path d="M293.73 637.13 a36.37 36.37 0 1 0 72.74 0 a36.37 36.37 0 1 0 -72.74 0z" stroke="rgba(104, 215, 214, 1)"></path><path d="M86.65 800.24a39.53 39.53 0 1 0-76.66 19.33z" fill="rgba(104, 215, 214, 1)"></path><path d="M415.37 473.31L458.15 473.31L458.15 516.09L415.37 516.09z" fill="rgba(104, 215, 214, 1)"></path><path d="M135.87 831.47L171.64 831.47L171.64 867.24L135.87 867.24z" fill="rgba(104, 215, 214, 1)"></path><path d="M313.77 367.41a20.76 20.76 0 1 0 34.74-22.75z" fill="rgba(104, 215, 214, 1)"></path><path d="M264.65 756.34L279.04 756.34L279.04 770.73L264.65 770.73z" stroke="rgba(104, 215, 214, 1)"></path><path d="M445.45 743.83 a4.02 4.02 0 1 0 8.04 0 a4.02 4.02 0 1 0 -8.04 0z" fill="rgba(104, 215, 214, 1)"></path><path d="M410.72 360.33L453.76 360.33L453.76 403.37L410.72 403.37z" fill="rgba(104, 215, 214, 1)"></path><path d="M332.33 30.96 a23.49 23.49 0 1 0 46.98 0 a23.49 23.49 0 1 0 -46.98 0z" fill="rgba(174, 88, 255, 1)"></path><path d="M476.21 278.9 a16.92 16.92 0 1 0 33.84 0 a16.92 16.92 0 1 0 -33.84 0z" fill="rgba(104, 215, 214, 1)"></path><path d="M59.42 579.19 a49.33 49.33 0 1 0 98.66 0 a49.33 49.33 0 1 0 -98.66 0z" fill="rgba(104, 215, 214, 1)"></path><path d="M235.81 16.77L261.86 16.77L261.86 42.82L235.81 42.82z" stroke="rgba(174, 88, 255, 1)"></path><path d="M19.88 211.13 a0.26 0.26 0 1 0 0.52 0 a0.26 0.26 0 1 0 -0.52 0z" fill="rgba(174, 88, 255, 1)"></path><path d="M220 745.81 a21.84 21.84 0 1 0 43.68 0 a21.84 21.84 0 1 0 -43.68 0z" stroke="rgba(174, 88, 255, 1)"></path><path d="M459.84 889.26L494.14 889.26L494.14 923.56L459.84 923.56z" stroke="rgba(174, 88, 255, 1)"></path><path d="M297.24 1033.28a12.33 12.33 0 1 0-23.62-7.08z" stroke="rgba(174, 88, 255, 1)"></path><path d="M78.83 263.13 a23.17 23.17 0 1 0 46.34 0 a23.17 23.17 0 1 0 -46.34 0z" fill="rgba(104, 215, 214, 1)"></path><path d="M130.67 1037.06L134.07 1037.06L134.07 1081.29L130.67 1081.29z" fill="rgba(104, 215, 214, 1)"></path><path d="M160.15 111.46a23.17 23.17 0 1 0-5.26 46.04z" fill="rgba(174, 88, 255, 1)"></path><path d="M288.15 302.71L322.79 302.71L322.79 337.35L288.15 337.35z" stroke="rgba(174, 88, 255, 1)"></path><path d="M122.33 747.65L137.41 747.65L137.41 758.33L122.33 758.33z" stroke="rgba(174, 88, 255, 1)"></path><path d="M466.26 698.57L514.97 698.57L514.97 747.28L466.26 747.28z" fill="rgba(104, 215, 214, 1)"></path><path d="M191.81 364.2L227.84 364.2L227.84 379.31L191.81 379.31z" stroke="rgba(174, 88, 255, 1)"></path><path d="M476.16 288.51L491.03 288.51L491.03 303.38L476.16 303.38z" fill="rgba(104, 215, 214, 1)"></path><path d="M430.33 680.54L454.58 680.54L454.58 704.79L430.33 704.79z" stroke="rgba(174, 88, 255, 1)"></path><path d="M44.43 516.32L58.2 516.32L58.2 549.97L44.43 549.97z" stroke="rgba(104, 215, 214, 1)"></path></g><defs><mask id="SvgjsMask1046"><rect width="500" height="1080" fill="#ffffff"></rect></mask></defs></svg>