<svg id="visual" viewBox="0 0 900 600" width="900" height="600" xmlns="http://www.w3.org/2000/svg" xmlns:xlink="http://www.w3.org/1999/xlink" version="1.1"><g transform="translate(413.76721872397536 307.5429371059108)"><path d="M80.6 -145.6C107.9 -123.9 135.8 -109.2 158.3 -86.1C180.8 -63 197.9 -31.5 200.6 1.6C203.4 34.7 191.8 69.3 167.3 89C142.8 108.6 105.4 113.2 75.4 133.2C45.3 153.2 22.7 188.6 -1.5 191.2C-25.7 193.8 -51.3 163.6 -67.6 135.6C-83.8 107.7 -90.6 82 -100.8 59.7C-111 37.5 -124.5 18.8 -127.7 -1.9C-131 -22.5 -123.9 -45 -118.9 -76C-113.8 -107.1 -110.6 -146.6 -91.2 -172.9C-71.7 -199.1 -35.8 -212.1 -4.6 -204.1C26.7 -196.2 53.3 -167.4 80.6 -145.6" fill="#F9F7F5"></path></g></svg>