<svg id="visual" viewBox="0 0 900 600" width="900" height="600" xmlns="http://www.w3.org/2000/svg" xmlns:xlink="http://www.w3.org/1999/xlink" version="1.1"><g transform="translate(447.90589002306046 291.8674829162005)"><path d="M79.5 -135.3C112 -118.9 153.4 -115.7 169.2 -95.4C184.9 -75 175 -37.5 158.7 -9.4C142.5 18.8 120 37.5 107.6 63.8C95.3 90 93.1 123.8 76.9 150.6C60.7 177.4 30.3 197.2 -2.3 201.2C-35 205.3 -70 193.6 -99.9 174.7C-129.8 155.7 -154.5 129.6 -165.7 99.3C-176.8 69 -174.4 34.5 -163.2 6.5C-151.9 -21.5 -131.8 -43 -117.1 -67.2C-102.5 -91.5 -93.2 -118.5 -74.6 -142.9C-56 -167.3 -28 -189.2 -2.3 -185.3C23.5 -181.4 47 -151.7 79.5 -135.3" fill="#F9F7F5"></path></g></svg>