<svg xmlns="http://www.w3.org/2000/svg" version="1.1" xmlns:xlink="http://www.w3.org/1999/xlink" xmlns:svgjs="http://svgjs.com/svgjs" width="1440" height="560" preserveAspectRatio="none" viewBox="0 0 1440 560"><g mask="url(&quot;#SvgjsMask1022&quot;)" fill="none"><path d="M415 552L414 360" stroke-width="6" stroke="url(#SvgjsLinearGradient1023)" stroke-linecap="round" class="Down"></path><path d="M1394 11L1393 -262" stroke-width="6" stroke="url(#SvgjsLinearGradient1024)" stroke-linecap="round" class="Up"></path><path d="M1124 460L1123 878" stroke-width="10" stroke="url(#SvgjsLinearGradient1023)" stroke-linecap="round" class="Down"></path><path d="M1147 129L1146 321" stroke-width="8" stroke="url(#SvgjsLinearGradient1023)" stroke-linecap="round" class="Down"></path><path d="M1200 446L1199 728" stroke-width="6" stroke="url(#SvgjsLinearGradient1024)" stroke-linecap="round" class="Up"></path><path d="M1076 280L1075 44" stroke-width="8" stroke="url(#SvgjsLinearGradient1023)" stroke-linecap="round" class="Down"></path><path d="M1314 465L1313 754" stroke-width="6" stroke="url(#SvgjsLinearGradient1024)" stroke-linecap="round" class="Up"></path><path d="M931 284L930 -14" stroke-width="8" stroke="url(#SvgjsLinearGradient1024)" stroke-linecap="round" class="Up"></path><path d="M76 49L75 339" stroke-width="6" stroke="url(#SvgjsLinearGradient1024)" stroke-linecap="round" class="Up"></path><path d="M1433 421L1432 68" stroke-width="6" stroke="url(#SvgjsLinearGradient1023)" stroke-linecap="round" class="Down"></path><path d="M1417 389L1416 125" stroke-width="8" stroke="url(#SvgjsLinearGradient1024)" stroke-linecap="round" class="Up"></path><path d="M63 43L62 224" stroke-width="10" stroke="url(#SvgjsLinearGradient1023)" stroke-linecap="round" class="Down"></path><path d="M654 471L653 287" stroke-width="10" stroke="url(#SvgjsLinearGradient1024)" stroke-linecap="round" class="Up"></path><path d="M414 143L413 -229" stroke-width="10" stroke="url(#SvgjsLinearGradient1023)" stroke-linecap="round" class="Down"></path><path d="M704 415L703 666" stroke-width="10" stroke="url(#SvgjsLinearGradient1024)" stroke-linecap="round" class="Up"></path><path d="M1057 524L1056 345" stroke-width="10" stroke="url(#SvgjsLinearGradient1023)" stroke-linecap="round" class="Down"></path><path d="M109 531L108 202" stroke-width="10" stroke="url(#SvgjsLinearGradient1024)" stroke-linecap="round" class="Up"></path><path d="M309 290L308 7" stroke-width="6" stroke="url(#SvgjsLinearGradient1023)" stroke-linecap="round" class="Down"></path><path d="M33 121L32 316" stroke-width="6" stroke="url(#SvgjsLinearGradient1023)" stroke-linecap="round" class="Down"></path><path d="M570 227L569 37" stroke-width="10" stroke="url(#SvgjsLinearGradient1023)" stroke-linecap="round" class="Down"></path><path d="M1431 189L1430 368" stroke-width="8" stroke="url(#SvgjsLinearGradient1024)" stroke-linecap="round" class="Up"></path><path d="M451 530L450 902" stroke-width="6" stroke="url(#SvgjsLinearGradient1024)" stroke-linecap="round" class="Up"></path><path d="M435 395L434 567" stroke-width="6" stroke="url(#SvgjsLinearGradient1023)" stroke-linecap="round" class="Down"></path><path d="M1303 345L1302 646" stroke-width="8" stroke="url(#SvgjsLinearGradient1023)" stroke-linecap="round" class="Down"></path><path d="M111 324L110 573" stroke-width="6" stroke="url(#SvgjsLinearGradient1023)" stroke-linecap="round" class="Down"></path><path d="M644 389L643 61" stroke-width="10" stroke="url(#SvgjsLinearGradient1023)" stroke-linecap="round" class="Down"></path><path d="M708 208L707 -79" stroke-width="8" stroke="url(#SvgjsLinearGradient1024)" stroke-linecap="round" class="Up"></path><path d="M237 119L236 -34" stroke-width="10" stroke="url(#SvgjsLinearGradient1024)" stroke-linecap="round" class="Up"></path><path d="M1064 352L1063 674" stroke-width="10" stroke="url(#SvgjsLinearGradient1024)" stroke-linecap="round" class="Up"></path><path d="M852 236L851 454" stroke-width="8" stroke="url(#SvgjsLinearGradient1024)" stroke-linecap="round" class="Up"></path><path d="M955 67L954 269" stroke-width="6" stroke="url(#SvgjsLinearGradient1023)" stroke-linecap="round" class="Down"></path><path d="M903 352L902 92" stroke-width="8" stroke="url(#SvgjsLinearGradient1023)" stroke-linecap="round" class="Down"></path><path d="M1363 311L1362 718" stroke-width="8" stroke="url(#SvgjsLinearGradient1023)" stroke-linecap="round" class="Down"></path><path d="M1171 47L1170 393" stroke-width="8" stroke="url(#SvgjsLinearGradient1024)" stroke-linecap="round" class="Up"></path><path d="M531 83L530 325" stroke-width="6" stroke="url(#SvgjsLinearGradient1024)" stroke-linecap="round" class="Up"></path><path d="M640 444L639 158" stroke-width="6" stroke="url(#SvgjsLinearGradient1024)" stroke-linecap="round" class="Up"></path></g><defs><mask id="SvgjsMask1022"><rect width="1440" height="560" fill="#ffffff"></rect></mask><linearGradient x1="0%" y1="0%" x2="0%" y2="100%" id="SvgjsLinearGradient1023"><stop stop-color="rgba(173, 113, 228, 0)" offset="0"></stop><stop stop-color="rgba(173, 113, 228, 1)" offset="1"></stop></linearGradient><linearGradient x1="0%" y1="100%" x2="0%" y2="0%" id="SvgjsLinearGradient1024"><stop stop-color="rgba(173, 113, 228, 0)" offset="0"></stop><stop stop-color="rgba(173, 113, 228, 1)" offset="1"></stop></linearGradient></defs></svg>